<svg width="54" height="51" viewBox="0 0 54 51" fill="none" xmlns="http://www.w3.org/2000/svg">
<path d="M26.6667 36C28.1333 36 29.3889 35.4778 30.4333 34.4333C31.4778 33.3889 32 32.1333 32 30.6667C32 29.2 31.4778 27.9444 30.4333 26.9C29.3889 25.8556 28.1333 25.3333 26.6667 25.3333C25.2 25.3333 23.9444 25.8556 22.9 26.9C21.8556 27.9444 21.3333 29.2 21.3333 30.6667C21.3333 32.1333 21.8556 33.3889 22.9 34.4333C23.9444 35.4778 25.2 36 26.6667 36ZM5.33333 50.6667C3.86667 50.6667 2.61111 50.1444 1.56667 49.1C0.522222 48.0556 0 46.8 0 45.3333V16C0 14.5333 0.522222 13.2778 1.56667 12.2333C2.61111 11.1889 3.86667 10.6667 5.33333 10.6667H16V5.33333C16 3.86667 16.5222 2.61111 17.5667 1.56667C18.6111 0.522222 19.8667 0 21.3333 0H32C33.4667 0 34.7222 0.522222 35.7667 1.56667C36.8111 2.61111 37.3333 3.86667 37.3333 5.33333V10.6667H48C49.4667 10.6667 50.7222 11.1889 51.7667 12.2333C52.8111 13.2778 53.3333 14.5333 53.3333 16V45.3333C53.3333 46.8 52.8111 48.0556 51.7667 49.1C50.7222 50.1444 49.4667 50.6667 48 50.6667H5.33333ZM5.33333 45.3333H48V16H5.33333V45.3333ZM21.3333 10.6667H32V5.33333H21.3333V10.6667Z" fill="white"/>
</svg>
