<svg width="43" height="54" viewBox="0 0 43 54" fill="none" xmlns="http://www.w3.org/2000/svg">
<path d="M21.3333 53.3333C15.1556 51.7778 10.0556 48.2333 6.03333 42.7C2.01111 37.1667 0 31.0222 0 24.2667V8L21.3333 0L42.6667 8V24.2667C42.6667 28.0444 42.0222 31.6778 40.7333 35.1667C39.4444 38.6556 37.6 41.7333 35.2 44.4L26.6667 35.8667C25.8667 36.3556 25.0111 36.7222 24.1 36.9667C23.1889 37.2111 22.2667 37.3333 21.3333 37.3333C18.4 37.3333 15.8889 36.2889 13.8 34.2C11.7111 32.1111 10.6667 29.6 10.6667 26.6667C10.6667 23.7333 11.7111 21.2222 13.8 19.1333C15.8889 17.0444 18.4 16 21.3333 16C24.2667 16 26.7778 17.0444 28.8667 19.1333C30.9556 21.2222 32 23.7333 32 26.6667C32 27.6444 31.8778 28.5889 31.6333 29.5C31.3889 30.4111 31.0222 31.2889 30.5333 32.1333L34.5333 36.1333C35.4222 34.3111 36.1111 32.4 36.6 30.4C37.0889 28.4 37.3333 26.3556 37.3333 24.2667V11.6667L21.3333 5.66667L5.33333 11.6667V24.2667C5.33333 29.6444 6.84444 34.5333 9.86667 38.9333C12.8889 43.3333 16.7111 46.2667 21.3333 47.7333C22.4889 47.3778 23.5889 46.9222 24.6333 46.3667C25.6778 45.8111 26.7111 45.1556 27.7333 44.4L31.4667 48.1333C30 49.3333 28.4111 50.3778 26.7 51.2667C24.9889 52.1556 23.2 52.8444 21.3333 53.3333ZM21.3333 32C22.8 32 24.0556 31.4778 25.1 30.4333C26.1444 29.3889 26.6667 28.1333 26.6667 26.6667C26.6667 25.2 26.1444 23.9444 25.1 22.9C24.0556 21.8556 22.8 21.3333 21.3333 21.3333C19.8667 21.3333 18.6111 21.8556 17.5667 22.9C16.5222 23.9444 16 25.2 16 26.6667C16 28.1333 16.5222 29.3889 17.5667 30.4333C18.6111 31.4778 19.8667 32 21.3333 32Z" fill="white"/>
</svg>
