<svg width="811" height="1136" viewBox="0 0 811 1136" fill="none" xmlns="http://www.w3.org/2000/svg">
<style>
    .body-silhouette {
        fill: #e8b585;
        stroke: #FFBA00;
        stroke-width: 2;
    }

    .region {
        fill: transparent;
        cursor: pointer;
        transition: 0.2s ease;
        stroke: #FFBA00;
        stroke-width: 1;
    }

    .region:hover {
        fill: #64A60B;
    }

    .region.selected {
        fill: rgba(0, 120, 255, 0.4);
        stroke: #004bcc;
        stroke-width: 2;
    }
    </style>

<rect width="811" height="1136" fill="white"/>

<g clip-path="url(#clip0_1_151)">
<path fill-rule="evenodd" clip-rule="evenodd" d="M555.508 499.633C554.273 497.547 553.126 495.411 551.865 493.325C550.183 490.565 549.304 487.513 548.616 484.372C547.763 480.442 546.833 476.537 545.916 472.62C545.164 469.402 543.635 466.681 541.38 464.163C538.247 460.64 535.533 456.735 532.718 452.933C532.17 452.208 531.864 451.216 531.762 450.313C531.507 448.443 531.495 446.535 531.316 444.653C530.807 439.655 530.132 434.67 529.762 429.659C529.163 421.227 528.794 412.769 528.272 404.324C527.838 397.482 527.456 390.64 526.858 383.81C525.915 373.114 523.775 362.647 519.596 352.664C519.303 351.951 519.252 351.061 519.316 350.273C519.481 348.276 519.889 346.292 519.991 344.295C520.309 338.076 520.093 331.844 519.214 325.701C517.252 312.157 513.672 298.765 509.532 285.754C509.175 284.597 508.933 283.325 508.959 282.117C509.035 280.184 509.455 278.263 509.608 276.33C509.774 274.219 509.647 272.07 509.914 269.984C510.551 265.24 510.385 260.534 509.557 255.854C508.233 248.236 504.78 239.893 500.296 232.326C495.964 225 490.397 220.867 484.206 216.848C481.301 214.978 478.282 213.668 474.945 212.765C471.556 211.85 467.989 211.824 464.689 210.349C463.262 209.713 461.721 209.357 460.332 208.619C454.523 205.567 448.816 202.311 442.981 199.335C438.726 197.16 434.344 195.291 429.974 193.434C428.433 192.773 428.293 192.913 428.14 191.361C427.286 182.484 429.159 173.136 429.159 172.843C429.159 172.78 429.134 172.742 429.121 172.691C429.197 172.589 429.274 172.487 429.35 172.386C430.573 170.427 431.503 168.367 431.847 166.065C432.089 164.45 432.331 162.834 432.561 161.206C434.382 161.474 436.204 161.321 437.109 160.024C437.784 159.044 438.013 157.925 438.574 156.857C439.147 155.738 440.14 154.86 440.943 153.919C442.625 151.922 443.007 149.086 443.045 146.415C443.058 144.012 443.504 138.314 440.319 137.691C439.631 137.564 438.726 138.111 437.911 138.772C437.911 138.734 437.911 138.696 437.924 138.657C438.23 136.279 438.179 133.875 438.752 131.523C440.803 123.065 439.516 114.709 435.796 107.676C430.994 98.6083 422.089 91.7533 410.955 89.7439C384.444 84.9619 362.277 103.759 365.526 131.09C365.806 133.481 366.621 135.758 367.322 138.06C367.437 138.352 367.551 138.632 367.666 138.924C366.8 138.2 365.806 137.551 365.067 137.691C361.882 138.314 362.316 144.012 362.341 146.415C362.367 149.086 362.761 151.91 364.43 153.919C365.22 154.86 366.227 155.75 366.8 156.857C367.36 157.925 367.59 159.044 368.265 160.024C369.36 161.601 371.781 161.499 373.959 161.003C374.125 161.804 374.201 162.631 374.24 163.445C374.405 166.294 375.068 168.977 376.584 171.394C377.233 172.411 377.947 173.416 378.622 174.408C379.017 178.885 379.87 187.978 380.087 189.835C380.367 192.277 379.297 193.052 376.928 194.172C376.711 194.261 376.482 194.362 376.265 194.464C372.38 196.372 368.443 198.216 364.609 200.289C359.373 203.125 354.226 206.165 349.028 209.153C346.391 210.667 343.729 212.079 340.799 212.587C339.576 212.804 338.315 212.931 337.104 213.287C334.467 214.101 331.626 214.546 329.295 215.894C321.371 220.511 314.403 225.038 309.129 234.488C302.886 245.667 298.287 258.576 300.135 271.535C300.173 271.879 300.16 272.248 300.135 272.591C299.931 274.906 300.313 277.169 300.746 279.433C301.179 281.697 301.409 284.024 300.682 286.276C296.924 298.002 293.612 310.007 291.536 322.166C289.892 331.743 289.179 341.408 290.669 351.112C290.848 352.282 290.644 353.312 290.211 354.368C288.07 359.582 286.402 364.937 285.268 370.456C283.089 381.101 282.338 391.886 281.777 402.696C281.522 407.656 281.42 412.616 281.102 417.577C280.707 423.719 280.172 429.837 279.662 435.967C279.331 439.973 278.745 443.966 278.592 447.973C278.478 451.101 277.841 453.861 275.777 456.328C273 459.635 270.452 463.132 267.687 466.439C266.528 467.825 265.42 469.186 264.974 470.941C263.764 475.698 262.553 480.442 261.432 485.224C260.808 487.869 260.273 490.553 258.948 492.969C257.509 495.614 255.98 498.209 254.464 500.816C253.547 502.368 253.993 503.589 255.776 503.983C258.528 504.568 261.241 504.593 263.496 502.558C264.885 501.299 266.184 499.926 267.496 498.565C267.917 498.12 268.261 497.586 268.63 497.09C268.745 497.14 268.859 497.191 268.974 497.242C268.923 497.865 268.898 498.476 268.821 499.112C268.286 503.919 267.675 508.739 267.191 513.547C266.77 517.731 266.452 521.902 266.159 526.099C266.031 527.74 266.069 529.406 266.095 531.047C266.095 531.823 266.617 532.357 267.343 532.611C268.019 532.84 268.388 532.357 268.834 531.937C271.458 529.495 272.719 526.328 273.586 522.984C275.14 516.917 276.554 510.812 278.057 504.72C278.159 504.339 278.414 503.983 278.592 503.614C278.974 504.021 279.038 504.352 279.025 504.67C278.974 506.208 278.898 507.747 278.822 509.286C278.631 513.127 278.414 516.968 278.236 520.796C278.006 525.451 277.955 530.118 278.592 534.76C279.025 534.938 279.446 535.027 279.777 535.244C280.745 535.854 281.624 535.663 282.312 534.862C282.745 534.341 283.102 533.718 283.306 533.069C284.975 528.045 285.586 522.805 286.491 517.629C286.988 514.73 287.332 511.779 287.739 508.854C287.918 509.312 288.032 509.77 288.032 510.227C288.07 515.365 288.058 520.516 288.16 525.667C288.198 527.486 288.453 529.304 288.72 531.11C288.886 532.255 289.65 532.878 290.72 533.018C291.472 533.12 292.542 532.433 292.924 531.517C293.128 531.034 293.204 530.5 293.281 529.978C293.663 527.511 292.848 511.715 293.281 508.854C294.007 510.647 295.727 525.387 296.326 526.786C297.154 528.745 297.179 528.719 299.319 528.414C299.536 528.376 299.752 528.376 300.135 528.338C300.326 527.384 300.67 526.468 300.682 525.565C300.733 523.022 300.619 520.478 300.593 517.934C300.542 511.83 299.867 505.712 301.383 499.608C302.237 496.148 302.071 492.448 302.326 488.861C302.415 487.678 302.288 486.483 302.402 485.313C302.861 480.607 303.179 475.901 302.975 471.17C302.784 466.655 302.453 462.166 301.052 457.867C300.517 456.265 300.606 454.942 301.154 453.467C303.192 447.973 305.396 442.542 307.154 436.959C311.307 423.77 315.32 410.518 319.307 397.279C321.817 388.961 323.409 380.516 323.091 371.766C323.015 369.54 323.346 367.302 323.409 365.051C323.486 362.329 323.537 359.62 323.448 356.911C323.397 355.271 323.626 353.796 324.467 352.333C326.913 348.072 328.735 343.507 330.429 338.89C332.225 333.994 333.639 328.995 334.824 323.934C334.964 323.298 335.002 322.573 335.703 322.013C336.569 323.959 337.385 325.778 338.174 327.622C338.327 327.991 338.315 328.436 338.366 328.843C339.117 335.889 339.831 342.947 340.582 350.006C341.003 353.948 341.678 357.865 341.907 361.795C342.162 366.285 342.009 370.787 342.098 375.276C342.213 380.834 342.327 386.392 342.595 391.937C342.71 394.099 343.245 396.248 343.678 398.385C343.996 399.962 344.213 401.475 343.64 403.078C343.054 404.68 342.646 406.372 342.289 408.025C340.773 415.122 339.601 422.219 341.347 429.455C341.512 430.18 341.487 431.007 341.347 431.744C340.518 436.043 339.601 440.329 338.786 444.615C336.149 458.592 333.474 472.607 331.04 486.635C329.843 493.541 329.066 500.562 328.365 507.557C327.422 517.095 327.04 526.672 327.244 536.261C327.371 542.175 327.601 548.076 327.996 553.977C328.212 557.144 328.989 560.285 329.308 563.44C330.238 572.622 331.97 581.69 332.747 590.872C333.27 597.041 333.55 603.12 332.467 609.25C330.989 617.593 330.505 626.038 330.824 634.495C330.887 636.301 330.671 637.98 330.047 639.684C327.32 647.175 325.868 655.073 325.117 662.869C322.288 692.54 323.053 722.122 325.053 752.099C325.053 752.099 325.996 775.398 325.996 780.676C325.996 785.954 324.365 793.585 321.932 798.583C315.04 812.751 303.192 825.724 293.013 838.263C287.726 844.788 286.949 843.77 284.35 845.831C281.93 847.738 281.599 848.756 280.236 850.918C278.936 852.978 279.688 854.479 279.688 854.479C278.134 858.676 281.051 859.21 281.051 859.21C282.924 862.631 286.032 861.55 286.032 861.55C290.389 865.9 292.988 862.428 292.988 862.428C297.969 868.176 303.103 866.93 309.014 861.817C314.925 856.692 314.377 858.867 317.575 857.608C331.346 852.228 331.996 838.658 343.882 831.968C357.003 824.592 360.366 816.592 358.825 811.467C357.271 806.341 356.341 799.028 356.341 799.028C357.742 798.1 358.201 795.149 357.424 792.199C354.927 782.749 355.869 781.63 357.78 762.108C360.647 744.354 363.067 724.183 371.513 708.819C374.533 703.325 376.520 696.966 377.246 690.48C377.768 685.647 377.743 680.802 377.603 675.956C377.437 669.979 376.762 664.052 375.896 658.138C375.259 653.75 374.622 649.363 373.972 644.988C373.832 644.021 373.959 643.156 374.545 642.304C376.189 639.875 377.246 637.179 378.023 634.381C379.526 628.887 380.393 623.291 380.431 617.58C380.456 614.503 380.546 611.425 380.813 608.372C381.004 606.045 381.068 603.667 382.214 601.479C387.183 591.979 391.158 582.046 394.228 571.77C397.209 561.863 399.4 551.739 401.693 541.654C403.604 533.196 405.54 524.726 407.451 516.294C407.579 517.108 407.681 517.96 407.884 518.799C408.483 521.33 409.133 523.848 409.77 526.367C411.872 534.849 414.05 543.358 416.05 551.853C420.101 568.972 425.796 585.849 434.242 601.365C434.217 601.365 434.217 601.365 434.178 601.39C434.446 601.899 434.675 602.433 434.879 602.967C434.943 603.26 435.032 603.539 435.07 603.832C435.694 609.466 436.242 613.294 436.306 614.948H436.331C436.344 615.825 436.382 616.69 436.382 617.58C436.408 621.815 436.917 627.526 438.803 634.381C439.567 637.179 440.637 639.888 442.281 642.304C442.727 642.965 444.395 645.814 442 659.868C440.994 665.756 440.867 671.746 440.905 677.724C440.93 682.582 441.058 687.415 441.758 692.235C442.701 698.683 444.943 704.991 448.103 710.371C456.778 725.098 458.6 745.18 461.836 762.451C464.409 781.897 464.957 782.202 462.791 791.703C462.116 794.679 463.224 798.354 464.651 799.232C464.651 799.232 463.989 804.09 463.237 809.393C461.938 818.805 463.428 824.045 477.212 832.146C489.136 839.154 489.518 852.877 503.774 857.862C507.01 858.994 506.806 857.302 512.462 862.72C518.399 868.392 523.303 868.316 528.08 862.402C528.08 862.402 530.947 865.391 534.909 861.614C534.909 861.614 538.616 862.453 539.954 859.159C539.954 859.159 543.368 857.862 540.973 854.53C540.973 854.53 543.33 853.169 538.055 847.001C536.552 845.258 533.953 845.958 528.475 838.798C520.628 828.56 512.908 818.131 505.481 807.664C502.003 802.755 498.359 798.723 496.92 793.178C495.48 787.633 494.78 786.933 494.691 781.745C494.461 768.263 495.073 754.337 495.404 740.64C495.238 714.53 495.557 688.789 492.907 662.895C492.359 657.489 488.346 642.838 487.658 641.045C486.779 638.285 485.951 635.424 485.99 634.495C486.308 626.038 485.824 617.593 484.346 609.25C483.302 603.311 482.958 596.634 483.378 590.656C483.595 587.731 483.747 584.768 484.002 581.83C484.308 578.421 484.843 575.026 485.238 571.617C485.722 567.687 486.206 563.758 486.627 559.815C487.034 556.127 487.569 552.413 487.684 548.699C487.875 542.849 487.773 536.999 487.748 531.161C487.709 521.394 486.983 511.652 485.607 501.999C484.461 493.859 483.251 485.72 481.76 477.656C480.206 469.301 478.32 460.983 476.537 452.666C474.894 444.984 473.161 437.302 471.518 429.62C471.39 429.01 471.377 428.311 471.518 427.7C472.486 422.867 472.333 418.034 471.441 413.252C470.766 409.526 469.811 405.863 468.893 402.2C468.524 400.674 468.435 399.199 468.715 397.647C469.059 395.663 469.505 393.667 469.556 391.67C469.658 387.486 469.568 383.276 469.53 379.079C469.479 375.582 469.25 372.097 469.365 368.612C469.543 363.245 469.874 357.865 470.295 352.498C470.932 344.359 471.696 336.232 472.422 328.118C472.524 327.011 474.206 323.349 475.034 322.407C475.199 322.954 475.352 323.463 475.48 323.972C477.785 333.676 481.059 343.036 485.862 351.812C486.359 352.727 486.588 353.656 486.537 354.699C486.461 356.225 486.346 357.764 486.397 359.29C486.525 363.194 486.983 367.086 486.881 370.978C486.69 379.054 488.028 386.888 490.257 394.595C491.913 400.267 493.735 405.889 495.442 411.548C498.512 421.748 501.239 432.037 505.048 441.995C506.475 445.696 507.761 449.448 509.15 453.149C509.519 454.128 509.583 455.018 509.124 456.036C508.678 457.041 508.436 458.172 508.22 459.266C507.137 464.977 506.666 470.738 507.073 476.55C507.29 479.45 507.557 482.324 507.621 485.224C507.748 490.896 507.748 496.568 509.456 502.062C509.519 502.291 509.545 502.533 509.545 502.762C509.545 507.137 509.545 511.525 509.494 515.9C509.468 518.609 509.264 521.33 509.277 524.052C509.277 525.069 509.621 526.099 509.812 527.066C510.449 527.155 510.844 527.206 511.239 527.27C512.679 527.524 512.768 527.486 513.379 526.125C513.812 525.146 514.233 524.179 514.64 523.2C514.882 522.589 515.738 508.629 515.954 508.019C516.604 510.575 516.309 526.367 516.679 528.821C516.755 529.279 516.819 529.762 516.997 530.195C517.367 531.072 518.488 531.873 519.15 531.81C520.157 531.695 521.074 530.907 521.252 529.775C521.507 528.16 521.787 526.506 521.825 524.866C521.915 519.613 521.864 514.335 521.915 509.07C521.915 508.612 522.029 508.142 522.118 507.442C522.87 512.211 523.482 516.726 524.297 521.19C524.959 524.789 525.813 528.363 526.666 531.912C527.214 534.175 528.526 534.722 530.577 533.756C530.832 533.629 531.1 533.552 531.405 533.438C532.641 523.073 530.858 512.809 531.049 502.279C531.864 502.787 531.89 503.372 532.017 503.919C532.603 506.45 533.138 509.006 533.788 511.512C534.552 514.501 535.508 517.426 536.157 520.427C536.985 524.255 538.247 527.804 541.1 530.614C541.533 531.047 541.865 531.581 542.565 531.365C543.291 531.123 543.763 530.602 543.877 529.826C543.928 529.546 543.928 529.228 543.916 528.936C543.623 524.23 543.457 519.499 543.037 514.793C542.451 508.332 541.686 501.872 540.973 495.296C541.482 495.958 541.915 496.568 542.4 497.14C543.24 498.145 544.056 499.15 544.973 500.066C547.495 502.609 550.515 503.525 554.056 502.749C555.878 502.342 556.464 501.058 555.521 499.506L555.508 499.633Z" fill="#404E57"/>
<path d="M517.987 446.01C525.914 444.786 526.103 408.387 522.802 387.006C519.501 365.625 514.427 376.484 506.5 377.708C498.573 378.932 490.795 370.058 494.096 391.438C497.397 412.819 510.06 447.234 517.987 446.01Z" stroke="#F1BC1C" class="region" data-part="Left - ear"/>
<path d="M470.5 242C479.613 242 487 236.404 487 229.5C487 222.596 479.613 217 470.5 217C461.387 217 454 222.596 454 229.5C454 236.404 461.387 242 470.5 242Z" stroke="#F1BC1C" class="region" data-part="Left - face"/>
<path d="M507.5 281.5C511 231 493.5 232 481 243.5C470.5 251 459 242.5 463.5 254.5C473.5 272.5 474.333 299.833 473.5 323L473.955 321.747C474.321 320.741 476.01 320.904 476.249 321.948C478.508 331.811 484.926 346.496 488.5 352.5C487.5 354 487.5 367 488.5 373.5C484.1 377.9 503.333 431.833 512.5 457.5C512.9 453.5 526 450.5 530.5 452C528.5 420 524.5 368.5 518 351C522 337.8 512.333 299.167 507.5 281.5Z" stroke="#F1BC1C" class="region" data-part="Left - arm"/>
</g>
<path d="M373.218 160.409C376.106 159.468 376.783 153.597 374.729 147.296C372.676 140.995 368.67 136.649 365.782 137.591C362.894 138.532 362.217 144.403 364.271 150.704C366.324 157.005 370.33 161.351 373.218 160.409Z" stroke="#F1BC1C" class="region" data-part="Left - ear"/>
<path d="M432.781 160.409C435.669 161.351 439.675 157.006 441.729 150.704C443.783 144.403 443.107 138.532 440.219 137.591C437.331 136.649 433.325 140.994 431.271 147.295C429.217 153.597 429.893 159.468 432.781 160.409Z" stroke="#F1BC1C" class="region" data-part="Right - ear"/>
<path d="M408 110.55C408 100.857 400.389 93 391 93C381.611 93 374 100.857 374 110.55V153.45C374 163.143 381.611 171 391 171C400.389 171 408 163.143 408 153.45V110.55Z" stroke="#F1BC1C" class="region" data-part="Left - face"/>
<path d="M432 110.55C432 100.857 424.389 93 415 93C405.611 93 398 100.857 398 110.55V153.45C398 163.143 405.611 171 415 171C424.389 171 432 163.143 432 153.45V110.55Z" stroke="#F1BC1C" class="region" data-part="Right - face"/>
<path d="M403 179.875C414.598 179.875 424 173.831 424 166.375C424 158.919 414.598 152.875 403 152.875C391.402 152.875 382 158.919 382 166.375C382 173.831 391.402 179.875 403 179.875Z" stroke="#F1BC1C" class="region" data-part="perioral"/>
<path d="M392 136C397.523 136 402 131.299 402 125.5C402 119.701 397.523 115 392 115C386.477 115 382 119.701 382 125.5C382 131.299 386.477 136 392 136Z" stroke="#F1BC1C" class="region" data-part="Left - cheek(s)"/>
<path d="M415 136C420.523 136 425 131.299 425 125.5C425 119.701 420.523 115 415 115C409.477 115 405 119.701 405 125.5C405 131.299 409.477 136 415 136Z" stroke="#F1BC1C" class="region" data-part="Right - cheek(s)"/>
<path d="M415.48 96.875H390.52C384.158 96.875 379 102.094 379 108.532V119.218C379 125.656 384.158 130.875 390.52 130.875H415.48C421.842 130.875 427 125.656 427 119.218V108.532C427 102.094 421.842 96.875 415.48 96.875Z" stroke="#F1BC1C" class="region" data-part="forehead"/>
<path d="M403 104.75C403 98.7439 396.508 93.875 388.5 93.875C380.492 93.875 374 98.7439 374 104.75V141C374 147.006 380.492 151.875 388.5 151.875C396.508 151.875 403 147.006 403 141V104.75Z" stroke="#F1BC1C" class="region" data-part="Left - head"/>
<path d="M432 104.75C432 98.7439 425.508 93.875 417.5 93.875C409.492 93.875 403 98.7439 403 104.75V141C403 147.006 409.492 151.875 417.5 151.875C425.508 151.875 432 147.006 432 141V104.75Z" stroke="#F1BC1C" class="region" data-part="Right - head"/>
<path d="M392.5 129C396.09 129 399 127.657 399 126C399 124.343 396.09 123 392.5 123C388.91 123 386 124.343 386 126C386 127.657 388.91 129 392.5 129Z" stroke="#F1BC1C" class="region" data-part="Left - eye"/>
<path d="M414.5 129C418.09 129 421 127.657 421 126C421 124.343 418.09 123 414.5 123C410.91 123 408 124.343 408 126C408 127.657 410.91 129 414.5 129Z" stroke="#F1BC1C" class="region" data-part="Right - eye"/>
<path d="M388.421 138.875H385.579C381.393 138.875 378 142.457 378 146.875V150.875C378 155.293 381.393 158.875 385.579 158.875H388.421C392.607 158.875 396 155.293 396 150.875V146.875C396 142.457 392.607 138.875 388.421 138.875Z" stroke="#F1BC1C" class="region" data-part="Left - jaw"/>
<path d="M420.421 138.875H417.579C413.393 138.875 410 142.457 410 146.875V150.875C410 155.293 413.393 158.875 417.579 158.875H420.421C424.607 158.875 428 155.293 428 150.875V146.875C428 142.457 424.607 138.875 420.421 138.875Z" stroke="#F1BC1C" class="region" data-part="Right - jaw"/>
<path d="M403 129.875L396 151.875H410L403 129.875Z" stroke="#F1BC1C" class="region" data-part="nose"/>
<path d="M403 168.875C411.284 168.875 418 166.189 418 162.875C418 159.561 411.284 156.875 403 156.875C394.716 156.875 388 159.561 388 162.875C388 166.189 394.716 168.875 403 168.875Z" stroke="#F1BC1C" class="region" data-part="mouth"/>
<path d="M411 158.875H395C393.895 158.875 393 159.77 393 160.875C393 161.98 393.895 162.875 395 162.875H411C412.105 162.875 413 161.98 413 160.875C413 159.77 412.105 158.875 411 158.875Z" stroke="#F1BC1C" class="region" data-part="teeth"/>
<path d="M411.667 181H395.333C386.313 181 379 188.326 379 197.364V200.636C379 209.674 386.313 217 395.333 217H411.667C420.687 217 428 209.674 428 200.636V197.364C428 188.326 420.687 181 411.667 181Z" stroke="#F1BC1C" class="region" data-part="neck"/>
<path d="M388.1 241H382.467C373.133 241 365.567 248.555 365.567 257.875V314.125C365.567 323.445 373.133 331 382.467 331H388.1C397.434 331 405 323.445 405 314.125V257.875C405 248.555 397.434 241 388.1 241Z" stroke="#F1BC1C" class="region" data-part="Left - upper back"/>
<path d="M427.533 241H421.9C412.566 241 405 248.555 405 257.875V314.125C405 323.445 412.566 331 421.9 331H427.533C436.867 331 444.433 323.445 444.433 314.125V257.875C444.433 248.555 436.867 241 427.533 241Z" stroke="#F1BC1C" class="region" data-part="Right - upper back"/>
<path d="M388.1 342H382.467C373.133 342 365.567 349.555 365.567 358.875V415.125C365.567 424.445 373.133 432 382.467 432H388.1C397.434 432 405 424.445 405 415.125V358.875C405 349.555 397.434 342 388.1 342Z" stroke="#F1BC1C" class="region" data-part="Left - lower back"/>
<path d="M427.533 342H421.9C412.566 342 405 349.555 405 358.875V415.125C405 424.445 412.566 432 421.9 432H427.533C436.867 432 444.433 424.445 444.433 415.125V358.875C444.433 349.555 436.867 342 427.533 342Z" stroke="#F1BC1C" class="region" data-part="Right - lower back"/>
<path d="M383.833 493.563C383.833 485.796 377.528 479.5 369.75 479.5C361.972 479.5 355.667 485.796 355.667 493.563C355.667 501.329 361.972 507.625 369.75 507.625C377.528 507.625 383.833 501.329 383.833 493.563Z" stroke="#F1BC1C" class="region" data-part="Left - flank"/>
<path d="M456.7 493.563C456.7 485.796 450.395 479.5 442.617 479.5C434.839 479.5 428.533 485.796 428.533 493.563C428.533 501.329 434.839 507.625 442.617 507.625C450.395 507.625 456.7 501.329 456.7 493.563Z" stroke="#F1BC1C" class="region" data-part="Right - flank"/>
<path d="M376.833 378.562C376.833 370.796 370.528 364.5 362.75 364.5C354.972 364.5 348.667 370.796 348.667 378.562C348.667 386.329 354.972 392.625 362.75 392.625C370.528 392.625 376.833 386.329 376.833 378.562Z" stroke="#F1BC1C" class="region" data-part="Left - rib(s)"/>
<path d="M455.7 378.562C455.7 370.796 449.395 364.5 441.617 364.5C433.839 364.5 427.533 370.796 427.533 378.562C427.533 386.329 433.839 392.625 441.617 392.625C449.395 392.625 455.7 386.329 455.7 378.562Z" stroke="#F1BC1C" class="region" data-part="Right - rib(s)"/>
<path d="M500.264 249.965C499.276 245.661 499.306 243.452 496.895 241.995C494.366 240.468 491.153 241.547 488.822 243.361L488 244L486.326 246.046C484.528 248.244 481.879 249.574 479.041 249.703L473.293 249.965C468.5 249.965 468.127 250.968 469.517 257.024L473.293 273.471C474.683 279.526 480.727 283.307 486.791 281.914L495.576 279.898C501.641 278.505 505.43 272.468 504.04 266.412L500.264 249.965Z" stroke="#F1BC1C" class="region" data-part="Right - middle of upper arm"/>
<path d="M494.906 286.153L486.059 287.876C479.951 289.065 476.507 297.766 478.365 307.311L483.412 333.233C485.271 342.777 491.728 349.55 497.836 348.361L506.683 346.638C512.791 345.449 516.236 336.748 514.377 327.204L509.33 301.281C507.472 291.737 501.014 284.964 494.906 286.153Z" stroke="#F1BC1C" class="region" data-part="Right - middle of forearm(s)"/>
<path d="M534 535C547.255 535 558 524.479 558 511.5C558 498.521 547.255 488 534 488C520.745 488 510 498.521 510 511.5C510 524.479 520.745 535 534 535Z" stroke="#F1BC1C" class="region" data-part="Right - hand(s)"/>
<path d="M276 535C289.255 535 300 524.479 300 511.5C300 498.521 289.255 488 276 488C262.745 488 252 498.521 252 511.5C252 524.479 262.745 535 276 535Z" stroke="#F1BC1C" class="region" data-part="Left - hand(s)"/>
<path d="M526.99 477.512C534.592 475.033 539.187 468.217 537.254 462.288C535.321 456.358 527.591 453.561 519.989 456.04C512.386 458.519 507.791 465.335 509.724 471.264C511.658 477.193 519.388 479.99 526.99 477.512Z" stroke="#F1BC1C" class="region" data-part="Right - wrist(s)"/>
<path d="M421.9 229.75H388.1C372.544 229.75 359.933 242.342 359.933 257.875V291.625C359.933 307.158 372.544 319.75 388.1 319.75H421.9C437.456 319.75 450.067 307.158 450.067 291.625V257.875C450.067 242.342 437.456 229.75 421.9 229.75Z" stroke="#F1BC1C" class="region" data-part="chest"/>
<path d="M416.267 330.75H393.733C378.177 330.75 365.567 343.342 365.567 358.875V392.625C365.567 408.158 378.177 420.75 393.733 420.75H416.267C431.823 420.75 444.433 408.158 444.433 392.625V358.875C444.433 343.342 431.823 330.75 416.267 330.75Z" stroke="#F1BC1C" class="region" data-part="abdomen"/>
<path d="M393.733 330.75H376.833C370.611 330.75 365.567 335.787 365.567 342V364.5C365.567 370.713 370.611 375.75 376.833 375.75H393.733C399.956 375.75 405 370.713 405 364.5V342C405 335.787 399.956 330.75 393.733 330.75Z" stroke="#F1BC1C" class="region" data-part="right upper quadrant"/>
<path d="M433.167 330.75H416.267C410.044 330.75 405 335.787 405 342V364.5C405 370.713 410.044 375.75 416.267 375.75H433.167C439.389 375.75 444.433 370.713 444.433 364.5V342C444.433 335.787 439.389 330.75 433.167 330.75Z" stroke="#F1BC1C" class="region" data-part="left upper quadrant"/>
<path d="M393.733 375.75H376.833C370.611 375.75 365.567 380.787 365.567 387V409.5C365.567 415.713 370.611 420.75 376.833 420.75H393.733C399.956 420.75 405 415.713 405 409.5V387C405 380.787 399.956 375.75 393.733 375.75Z" stroke="#F1BC1C" class="region" data-part="right lower quadrant"/>
<path d="M433.167 375.75H416.267C410.044 375.75 405 380.787 405 387V409.5C405 415.713 410.044 420.75 416.267 420.75H433.167C439.389 420.75 444.433 415.713 444.433 409.5V387C444.433 380.787 439.389 375.75 433.167 375.75Z" stroke="#F1BC1C" class="region" data-part="left lower quadrant"/>
<path d="M416.267 313.875H393.733C387.511 313.875 382.467 318.912 382.467 325.125V330.75C382.467 336.963 387.511 342 393.733 342H416.267C422.489 342 427.533 336.963 427.533 330.75V325.125C427.533 318.912 422.489 313.875 416.267 313.875Z" stroke="#F1BC1C" class="region" data-part="epigastric"/>
<path d="M410.633 398.25H399.367C393.144 398.25 388.1 403.287 388.1 409.5C388.1 415.713 393.144 420.75 399.367 420.75H410.633C416.856 420.75 421.9 415.713 421.9 409.5C421.9 403.287 416.856 398.25 410.633 398.25Z" stroke="#F1BC1C" class="region" data-part="suprapublic"/>
<path d="M406 479.5C423.423 479.5 437.547 469.426 437.547 457C437.547 444.573 423.423 434.5 406 434.5C388.577 434.5 374.453 444.573 374.453 457C374.453 469.426 388.577 479.5 406 479.5Z" stroke="#F1BC1C" class="region" data-part="groin"/>
<path d="M417.267 445.75H394.733C382.288 445.75 372.2 455.824 372.2 468.25V473.875C372.2 486.301 382.288 496.375 394.733 496.375H417.267C429.711 496.375 439.8 486.301 439.8 473.875V468.25C439.8 455.824 429.711 445.75 417.267 445.75Z" stroke="#F1BC1C" class="region" data-part="pelvis"/>
<path d="M389.1 482.875C399.056 482.875 407.127 476.327 407.127 468.25C407.127 460.173 399.056 453.625 389.1 453.625C379.144 453.625 371.073 460.173 371.073 468.25C371.073 476.327 379.144 482.875 389.1 482.875Z" stroke="#F1BC1C" class="region" data-part="Left - hip(s)"/>
<path d="M422.9 482.875C432.856 482.875 440.927 476.327 440.927 468.25C440.927 460.173 432.856 453.625 422.9 453.625C412.944 453.625 404.873 460.173 404.873 468.25C404.873 476.327 412.944 482.875 422.9 482.875Z" stroke="#F1BC1C" class="region" data-part="Right - hip(s)"/>
<path d="M406 486.25C415.956 486.25 424.027 480.206 424.027 472.75C424.027 465.294 415.956 459.25 406 459.25C396.044 459.25 387.973 465.294 387.973 472.75C387.973 480.206 396.044 486.25 406 486.25Z" stroke="#F1BC1C" class="region" data-part="genitals"/>
<path d="M406 502C413.467 502 419.52 496.963 419.52 490.75C419.52 484.537 413.467 479.5 406 479.5C398.533 479.5 392.48 484.537 392.48 490.75C392.48 496.963 398.533 502 406 502Z" stroke="#F1BC1C" class="region" data-part="anus"/>
<path d="M484.223 498.084C481.257 485.725 457.093 515.006 448.132 516.377C439.172 517.748 408.32 507.341 409.569 519.838L425.39 580.648L434.783 601.413L438.244 630.582L443.682 645.414L442.199 686.449L447.143 705.73L455.054 723.034L462.469 762.586C463.719 775.083 470.318 775.822 479.279 774.451L479.384 774.435C488.291 773.073 494.861 772.068 493.616 759.619L493.616 696.337L492.133 663.212L485.212 635.032L482.74 606.851L482.74 590.536L486.695 553.457L486.695 524.287L484.223 498.084Z" stroke="#F1BC1C" class="region" data-part="Right - leg"/>
<path d="M476.816 588.166C476.224 579.836 484 508 476.816 511.5L457.412 523.764C453.562 526.197 449.129 527.426 444.703 527.287L421.023 526.547C420.009 526.516 418.78 526.539 418.457 527.529C415.948 535.225 435.952 583.282 436.5 591L445 619.5C446.5 627 450.5 631 463 625.5L470.5 625C477.349 624.153 479.024 617.695 478.433 609.364L476.816 588.166Z" stroke="#F1BC1C" class="region" data-part="Right - middle of thigh"/>
<path d="M468.914 679.178C478.337 677.63 485 667 484.008 651.497C482.979 642.239 483.423 629.952 474 631.5C460.162 633.774 444.971 631.742 446 641C447 667.5 459.491 680.727 468.914 679.178Z" stroke="#F1BC1C" class="region" data-part="Right - knee(s)"/>
<path d="M488.5 702C487.565 693.584 492.809 674.381 486 675.5L472.077 683.767C470.73 684.567 469.183 684.907 467.675 684.734L452.5 683C445.691 684.119 455.565 706.084 456.5 714.5L459.704 727.294C460.639 735.71 467.691 770.619 474.5 769.5L482.5 769.5C489.309 768.381 490.435 741.916 489.5 733.5L488.5 702Z" stroke="#F1BC1C" class="region" data-part="Right - middle of lower leg"/>
<path d="M472 827C476 829.5 483 831 488.905 843.554C492.642 851.5 500.318 853.92 506.5 854.956C511 861 517.252 853.156 520.5 849.5C522.71 847.013 529.495 846.211 529.5 842.5C526 836.5 516.5 829 512.321 818.324C508.517 814.944 505.484 808.812 501.5 807C492 808 483.265 806.498 479.003 811.295C476.72 813.864 465.959 816.451 466.5 820.5M472 827C470.079 823.562 466.92 823.642 466.5 820.5M472 827L466.5 820.5" stroke="#F1BC1C" class="region" data-part="Right - foot (feet)"/>
<path d="M494 777.5C494 770.691 485 774.5 479.5 774.5C468 774.5 463.826 782.259 464.5 789C464.765 791.647 462.74 793.942 465 797.5C467.5 799 462.874 812.198 466 814.5C470.002 817.447 480 807 483 805.5C486.5 805.5 497.165 806.536 498.5 804C500.5 802.5 495.686 795 494 787.5M494 777.5C494 781 494 784 494 787.5M494 777.5L494 787.5" stroke="#F1BC1C" class="region" data-part="Right - ankle(s)"/>
<path d="M531.258 861.198C537.437 857.001 540.727 851.068 538.607 847.946C536.486 844.823 529.758 845.694 523.579 849.891C517.4 854.087 514.11 860.021 516.231 863.143C518.351 866.265 525.08 865.395 531.258 861.198Z" stroke="#F1BC1C" class="region" data-part="Right - toe(s)"/>
<path d="M331.346 498.259C334.104 485.852 358.756 514.724 367.738 515.944C376.72 517.165 407.393 506.242 406.353 518.758L391.554 579.826L382.51 600.745L379.539 629.968L374.35 644.889L376.521 685.893L371.901 705.254L364.281 722.688L357.53 762.359C356.49 774.875 349.904 775.725 340.921 774.504L340.816 774.49C331.887 773.277 325.302 772.382 326.337 759.915L325.277 696.641L326.204 663.497L332.653 635.204L334.652 606.986L334.378 590.673L329.802 553.665L329.313 524.5L331.346 498.259Z" stroke="#F1BC1C" class="region" data-part="Left - leg"/>
<path d="M340.262 588.205C340.713 579.865 331.735 508.17 338.976 511.549L358.583 523.486C362.474 525.854 366.926 527.008 371.35 526.796L395.014 525.659C396.027 525.61 397.257 525.613 397.596 526.598C400.234 534.25 381.038 582.636 380.619 590.362L372.598 619C371.224 626.525 367.292 630.591 354.701 625.301L347.194 624.927C340.332 624.195 338.548 617.766 339 609.427L340.262 588.205Z" stroke="#F1BC1C" class="region" data-part="Left - middle of thigh"/>
<path d="M349.687 679.071C340.24 677.681 333.4 667.164 334.132 651.647C335.005 642.373 334.356 630.095 343.803 631.485C357.678 633.526 372.832 631.241 371.959 640.514C371.403 667.027 359.135 680.461 349.687 679.071Z" stroke="#F1BC1C" class="region" data-part="Left - knee(s)"/>
<path d="M330.487 702.218C331.281 693.787 325.715 674.675 332.543 675.68L346.603 683.712C347.963 684.489 349.515 684.803 351.02 684.606L366.164 682.617C372.991 683.622 363.486 705.749 362.692 714.18L359.703 727.026C358.909 735.456 352.444 770.478 345.617 769.474L337.618 769.608C330.791 768.604 329.221 742.161 330.015 733.73L330.487 702.218Z" stroke="#F1BC1C" class="region" data-part="Left - middle of lower leg"/>
<path d="M349.08 826.924C345.123 829.49 338.149 831.108 332.455 843.759C328.852 851.766 321.217 854.315 315.054 855.455C310.656 861.573 304.274 853.835 300.964 850.234C298.713 847.784 291.915 847.096 291.848 843.385C295.247 837.328 304.62 829.669 308.619 818.925C312.366 815.482 315.297 809.3 319.249 807.421C328.765 808.262 337.473 806.613 341.815 811.338C344.141 813.869 354.944 816.275 354.47 820.333M349.08 826.924C350.943 823.454 354.103 823.481 354.47 820.333M349.08 826.924L354.47 820.333" stroke="#F1BC1C" class="region" data-part="Left - foot (feet)"/>
<path d="M326.253 777.8C326.139 770.991 335.202 774.649 340.701 774.557C352.2 774.364 356.503 782.052 355.942 788.803C355.722 791.454 357.785 793.715 355.585 797.311C353.11 798.853 357.957 811.971 354.87 814.325C350.918 817.339 340.746 807.061 337.721 805.611C334.222 805.67 323.575 806.885 322.198 804.371C320.173 802.905 324.861 795.325 326.421 787.798M326.253 777.8C326.312 781.299 326.362 784.299 326.421 787.798M326.253 777.8L326.421 787.798" stroke="#F1BC1C" class="region" data-part="Left - ankle(s)"/>
<path d="M290.403 862.11C284.155 858.018 280.766 852.141 282.834 848.983C284.902 845.826 291.644 846.584 297.892 850.676C304.141 854.768 307.53 860.646 305.462 863.803C303.393 866.961 296.652 866.203 290.403 862.11Z" stroke="#F1BC1C" class="region" data-part="Left - toe(s)"/>
<path d="M506.412 372.837C512.93 371.641 517.407 366.268 516.41 360.836C515.414 355.404 509.322 351.969 502.803 353.165C496.284 354.361 491.808 359.734 492.804 365.166C493.801 370.598 499.893 374.033 506.412 372.837Z" stroke="#F1BC1C" class="region" data-part="Right - elbow(s)"/>
<path d="M292.768 445.01C284.841 443.786 284.651 407.387 287.952 386.006C291.254 364.625 296.328 375.484 304.255 376.708C312.182 377.932 319.96 369.058 316.659 390.438C313.357 411.819 300.695 446.234 292.768 445.01Z" stroke="#F1BC1C" class="region" data-part="Right - ear"/>
<path d="M340.255 241C331.142 241 323.755 235.404 323.755 228.5C323.755 221.596 331.142 216 340.255 216C349.367 216 356.755 221.596 356.755 228.5C356.755 235.404 349.367 241 340.255 241Z" stroke="#F1BC1C" class="region" data-part="Right - face"/>
<path d="M303.255 280.5C299.755 230 317.255 231 329.755 242.5C340.255 250 351.755 241.5 347.255 253.5C337.255 271.5 336.421 298.833 337.255 322L336.799 320.747C336.433 319.741 334.745 319.904 334.506 320.948C332.247 330.811 325.828 345.496 322.255 351.5C323.255 353 323.255 366 322.255 372.5C326.655 376.9 307.421 430.833 298.255 456.5C297.855 452.5 284.755 449.5 280.255 451C282.255 419 286.255 367.5 292.755 350C288.755 336.8 298.421 298.167 303.255 280.5Z" stroke="#F1BC1C" class="region" data-part="Right - arm"/>
<path d="M310.491 248.965C311.479 244.661 311.448 242.452 313.86 240.995C316.389 239.468 319.601 240.547 321.933 242.361L322.755 243L324.428 245.046C326.227 247.244 328.876 248.574 331.713 248.703L337.461 248.965C342.255 248.965 342.628 249.968 341.237 256.024L337.461 272.471C336.071 278.526 330.028 282.307 323.963 280.914L315.178 278.898C309.114 277.505 305.324 271.468 306.715 265.412L310.491 248.965Z" stroke="#F1BC1C" class="region" data-part="Left - middle of upper arm"/>
<path d="M315.848 285.153L324.696 286.876C330.803 288.065 334.248 296.766 332.39 306.311L327.342 332.233C325.484 341.777 319.026 348.55 312.918 347.361L304.071 345.638C297.964 344.449 294.519 335.748 296.377 326.204L301.425 300.281C303.283 290.737 309.741 283.964 315.848 285.153Z" stroke="#F1BC1C" class="region" data-part="Left - middle of forearm(s)"/>
<path d="M283.765 476.512C276.163 474.033 271.567 467.217 273.501 461.288C275.434 455.358 283.164 452.561 290.766 455.04C298.368 457.519 302.964 464.335 301.03 470.264C299.097 476.193 291.367 478.99 283.765 476.512Z" stroke="#F1BC1C" class="region" data-part="Left - wrist(s)"/>
<path d="M304.343 371.837C297.824 370.641 293.348 365.268 294.344 359.836C295.341 354.404 301.433 350.969 307.952 352.165C314.47 353.361 318.947 358.734 317.95 364.166C316.954 369.598 310.862 373.033 304.343 371.837Z" stroke="#F1BC1C" class="region" data-part="Left - elbow(s)"/>
<path d="M464 259.5C457 242 445.452 224 422.571 224L408.148 226.052C406.061 226.349 403.942 226.33 401.861 225.996L389.429 224C366.548 224 348 239.894 348 259.5L341 291V337.5L345 379.5L347 399.5L343.5 419.5L345 431L339.5 453.5L335.5 480.5C335.5 491.293 352.114 503.481 360.991 509.994L361 510C368.242 515.313 379.219 510 389.5 510L409.5 506L422.571 508C432.852 508 442.758 515.313 450 510C468.5 492.5 482 497.297 482 486.5L479.5 476.5L472.5 447.5L468.5 431L471 419.5L467 401L468.5 383V351.5L470.5 327V306.5V291L468.5 274L464 259.5Z" stroke="#F1BC1C" class="" data-part="back"/>
<defs>
<clipPath id="clip0_1_151">
<rect width="302" height="778" fill="white" transform="translate(254 89)"/>
</clipPath>
</defs>
</svg>