<svg width="338" height="900" viewBox="0 0 338 900" fill="none" xmlns="http://www.w3.org/2000/svg">
<style>
    .body-silhouette {
        fill: #e8b585;
        stroke: #cc946a;
        stroke-width: 2;
    }

    .region {
        fill: transparent;
        cursor: pointer;
        transition: 0.2s ease;
        stroke: #004bcc41;
        stroke-width: 1;
    }

    .region:hover {
        fill: rgba(0, 120, 255, 0.18);
    }

    .region.selected {
        fill: rgba(0, 120, 255, 0.4);
        stroke: #004bcc;
        stroke-width: 2;
    }
</style>
<g clip-path="url(#clip0_1_2)">
<path d="M169 67.5C135.2 67.5 123.933 112.5 123.933 146.25V185.625C107.033 196.875 90.1333 213.75 78.8667 236.25C67.6 258.75 61.9667 281.25 61.9667 303.75C61.9667 348.75 73.2333 388.125 90.1333 421.875C56.3333 506.25 73.2333 731.25 135.2 855H202.8C264.767 731.25 281.667 506.25 247.867 421.875C264.767 388.125 276.033 348.75 276.033 303.75C276.033 281.25 270.4 258.75 259.133 236.25C247.867 213.75 230.967 196.875 214.067 185.625V146.25C214.067 112.5 202.8 67.5 169 67.5Z" fill="#E8B585" fill-opacity="0.17" stroke="#CC946A" stroke-opacity="0.31" stroke-width="2" class="region"/>
<path d="M174.633 121.5C174.633 110.316 165.806 101.25 154.917 101.25C144.027 101.25 135.2 110.316 135.2 121.5V171C135.2 182.184 144.027 191.25 154.917 191.25C165.806 191.25 174.633 182.184 174.633 171V121.5Z" stroke="#25cc00ff" stroke-opacity="0.254902" class="body-silhouette"/>
<path d="M202.8 121.5C202.8 110.316 193.973 101.25 183.083 101.25C172.194 101.25 163.367 110.316 163.367 121.5V171C163.367 182.184 172.194 191.25 183.083 191.25C193.973 191.25 202.8 182.184 202.8 171V121.5Z" stroke="#004BCC" stroke-opacity="0.254902"/>
<path d="M127.313 166.5C132.291 166.5 136.327 157.434 136.327 146.25C136.327 135.066 132.291 126 127.313 126C122.335 126 118.3 135.066 118.3 146.25C118.3 157.434 122.335 166.5 127.313 166.5Z" stroke="#004BCC" stroke-opacity="0.254902"/>
<path d="M210.687 166.5C215.665 166.5 219.7 157.434 219.7 146.25C219.7 135.066 215.665 126 210.687 126C205.709 126 201.673 135.066 201.673 146.25C201.673 157.434 205.709 166.5 210.687 166.5Z" stroke="#004BCC" stroke-opacity="0.254902"/>
<path d="M169 190.125C182.689 190.125 193.787 183.073 193.787 174.375C193.787 165.677 182.689 158.625 169 158.625C155.311 158.625 144.213 165.677 144.213 174.375C144.213 183.073 155.311 190.125 169 190.125Z" stroke="#004BCC" stroke-opacity="0.254902"/>
<path d="M149.847 166.5C159.18 166.5 166.747 156.426 166.747 144C166.747 131.574 159.18 121.5 149.847 121.5C140.513 121.5 132.947 131.574 132.947 144C132.947 156.426 140.513 166.5 149.847 166.5Z" stroke="#004BCC" stroke-opacity="0.254902"/>
<path d="M188.153 166.5C197.487 166.5 205.053 156.426 205.053 144C205.053 131.574 197.487 121.5 188.153 121.5C178.82 121.5 171.253 131.574 171.253 144C171.253 156.426 178.82 166.5 188.153 166.5Z" stroke="#004BCC" stroke-opacity="0.254902"/>
<path d="M183.647 78.75H154.353C146.886 78.75 140.833 84.7942 140.833 92.25V104.625C140.833 112.081 146.886 118.125 154.353 118.125H183.647C191.114 118.125 197.167 112.081 197.167 104.625V92.25C197.167 84.7942 191.114 78.75 183.647 78.75Z" stroke="#004BCC" stroke-opacity="0.254902"/>
<path d="M169 84.375C169 75.0552 161.434 67.5 152.1 67.5C142.766 67.5 135.2 75.0552 135.2 84.375V140.625C135.2 149.945 142.766 157.5 152.1 157.5C161.434 157.5 169 149.945 169 140.625V84.375Z" stroke="#004BCC" stroke-opacity="0.254902"/>
<path d="M202.8 84.375C202.8 75.0552 195.234 67.5 185.9 67.5C176.566 67.5 169 75.0552 169 84.375V140.625C169 149.945 176.566 157.5 185.9 157.5C195.234 157.5 202.8 149.945 202.8 140.625V84.375Z" stroke="#004BCC" stroke-opacity="0.254902"/>
<path d="M155.48 140.625C159.213 140.625 162.24 138.107 162.24 135C162.24 131.893 159.213 129.375 155.48 129.375C151.747 129.375 148.72 131.893 148.72 135C148.72 138.107 151.747 140.625 155.48 140.625Z" stroke="#004BCC" stroke-opacity="0.254902"/>
<path d="M182.52 140.625C186.253 140.625 189.28 138.107 189.28 135C189.28 131.893 186.253 129.375 182.52 129.375C178.787 129.375 175.76 131.893 175.76 135C175.76 138.107 178.787 140.625 182.52 140.625Z" stroke="#004BCC" stroke-opacity="0.254902"/>
<path d="M152.1 166.5H148.72C143.742 166.5 139.707 170.529 139.707 175.5V180C139.707 184.971 143.742 189 148.72 189H152.1C157.078 189 161.113 184.971 161.113 180V175.5C161.113 170.529 157.078 166.5 152.1 166.5Z" stroke="#004BCC" stroke-opacity="0.254902"/>
<path d="M189.28 166.5H185.9C180.922 166.5 176.887 170.529 176.887 175.5V180C176.887 184.971 180.922 189 185.9 189H189.28C194.258 189 198.293 184.971 198.293 180V175.5C198.293 170.529 194.258 166.5 189.28 166.5Z" stroke="#004BCC" stroke-opacity="0.254902"/>
<path d="M169 132.75L161.113 157.5H176.887L169 132.75Z" stroke="#004BCC" stroke-opacity="0.254902"/>
<path d="M169 189C178.334 189 185.9 185.978 185.9 182.25C185.9 178.522 178.334 175.5 169 175.5C159.666 175.5 152.1 178.522 152.1 182.25C152.1 185.978 159.666 189 169 189Z" stroke="#004BCC" stroke-opacity="0.254902"/>
<path d="M178.013 177.75H159.987C158.742 177.75 157.733 178.757 157.733 180C157.733 181.243 158.742 182.25 159.987 182.25H178.013C179.258 182.25 180.267 181.243 180.267 180C180.267 178.757 179.258 177.75 178.013 177.75Z" stroke="#004BCC" stroke-opacity="0.254902"/>
<path d="M174.633 191.25H163.367C157.144 191.25 152.1 196.287 152.1 202.5V204.75C152.1 210.963 157.144 216 163.367 216H174.633C180.856 216 185.9 210.963 185.9 204.75V202.5C185.9 196.287 180.856 191.25 174.633 191.25Z" stroke="#004BCC" stroke-opacity="0.254902"/>
<path d="M180.267 225H157.733C142.177 225 129.567 237.592 129.567 253.125V421.875C129.567 437.408 142.177 450 157.733 450H180.267C195.823 450 208.433 437.408 208.433 421.875V253.125C208.433 237.592 195.823 225 180.267 225Z" stroke="#004BCC" stroke-opacity="0.254902"/>
<path d="M152.1 225H146.467C137.133 225 129.567 232.555 129.567 241.875V298.125C129.567 307.445 137.133 315 146.467 315H152.1C161.434 315 169 307.445 169 298.125V241.875C169 232.555 161.434 225 152.1 225Z" stroke="#004BCC" stroke-opacity="0.254902"/>
<path d="M191.533 225H185.9C176.566 225 169 232.555 169 241.875V298.125C169 307.445 176.566 315 185.9 315H191.533C200.867 315 208.433 307.445 208.433 298.125V241.875C208.433 232.555 200.867 225 191.533 225Z" stroke="#004BCC" stroke-opacity="0.254902"/>
<path d="M152.1 315H146.467C137.133 315 129.567 322.555 129.567 331.875V388.125C129.567 397.445 137.133 405 146.467 405H152.1C161.434 405 169 397.445 169 388.125V331.875C169 322.555 161.434 315 152.1 315Z" stroke="#004BCC" stroke-opacity="0.254902"/>
<path d="M191.533 315H185.9C176.566 315 169 322.555 169 331.875V388.125C169 397.445 176.566 405 185.9 405H191.533C200.867 405 208.433 397.445 208.433 388.125V331.875C208.433 322.555 200.867 315 191.533 315Z" stroke="#004BCC" stroke-opacity="0.254902"/>
<path d="M98.3 221.375C109.5 221.375 118.58 214.323 118.58 205.625C118.58 196.927 109.5 189.875 98.3 189.875C87.0997 189.875 78.02 196.927 78.02 205.625C78.02 214.323 87.0997 221.375 98.3 221.375Z" stroke="#004BCC" stroke-opacity="0.254902"/>
<path d="M219.7 246.375C230.9 246.375 239.98 239.323 239.98 230.625C239.98 221.927 230.9 214.875 219.7 214.875C208.5 214.875 199.42 221.927 199.42 230.625C199.42 239.323 208.5 246.375 219.7 246.375Z" stroke="#004BCC" stroke-opacity="0.254902"/>
<path d="M140.833 441.563C140.833 433.796 134.528 427.5 126.75 427.5C118.972 427.5 112.667 433.796 112.667 441.563C112.667 449.329 118.972 455.625 126.75 455.625C134.528 455.625 140.833 449.329 140.833 441.563Z" stroke="#004BCC" stroke-opacity="0.254902"/>
<path d="M219.7 441.563C219.7 433.796 213.395 427.5 205.617 427.5C197.839 427.5 191.533 433.796 191.533 441.563C191.533 449.329 197.839 455.625 205.617 455.625C213.395 455.625 219.7 449.329 219.7 441.563Z" stroke="#004BCC" stroke-opacity="0.254902"/>
<path d="M140.833 351.562C140.833 343.796 134.528 337.5 126.75 337.5C118.972 337.5 112.667 343.796 112.667 351.562C112.667 359.329 118.972 365.625 126.75 365.625C134.528 365.625 140.833 359.329 140.833 351.562Z" stroke="#004BCC" stroke-opacity="0.254902"/>
<path d="M219.7 351.562C219.7 343.796 213.395 337.5 205.617 337.5C197.839 337.5 191.533 343.796 191.533 351.562C191.533 359.329 197.839 365.625 205.617 365.625C213.395 365.625 219.7 359.329 219.7 351.562Z" stroke="#004BCC" stroke-opacity="0.254902"/>
<path d="M117.379 213.231C119.776 202.307 113.097 191.559 102.461 189.226C91.8245 186.892 81.2591 193.856 78.8622 204.779L53.7873 319.061C51.3905 329.985 58.0698 340.732 68.706 343.066C79.3422 345.4 89.9075 338.436 92.3044 327.512L117.379 213.231Z" stroke="#004BCC" stroke-opacity="0.254902"/>
<path d="M257.133 202.383C254.735 191.459 244.169 184.497 233.533 186.831C222.897 189.166 216.219 199.914 218.616 210.837L243.701 325.117C246.098 336.041 256.664 343.003 267.3 340.669C277.936 338.334 284.615 327.586 282.217 316.663L257.133 202.383Z" stroke="#004BCC" stroke-opacity="0.254902"/>
<path d="M89.8135 237.058C98.6553 240.048 108.727 233.883 112.31 223.288C115.892 212.694 111.628 201.682 102.786 198.692C93.9447 195.702 83.8729 201.867 80.2905 212.461C76.7081 223.056 80.9717 234.068 89.8135 237.058Z" stroke="#004BCC" stroke-opacity="0.254902"/>
<path d="M219.7 262.125C229.034 262.125 236.6 253.059 236.6 241.875C236.6 230.691 229.034 221.625 219.7 221.625C210.366 221.625 202.8 230.691 202.8 241.875C202.8 253.059 210.366 262.125 219.7 262.125Z" stroke="#004BCC" stroke-opacity="0.254902"/>
<path d="M242.233 241.875H233.22C226.998 241.875 221.953 246.912 221.953 253.125V270C221.953 276.213 226.998 281.25 233.22 281.25H242.233C248.456 281.25 253.5 276.213 253.5 270V253.125C253.5 246.912 248.456 241.875 242.233 241.875Z" stroke="#004BCC" stroke-opacity="0.254902"/>
<path d="M85.071 288.632L76.2862 286.616C70.2216 285.223 64.1782 289.004 62.7879 295.059L59.012 311.506C57.6217 317.562 61.411 323.6 67.4757 324.992L76.2605 327.009C82.3251 328.401 88.3685 324.621 89.7587 318.565L93.5347 302.118C94.925 296.063 91.1357 290.025 85.071 288.632Z" stroke="#004BCC" stroke-opacity="0.254902"/>
<path d="M242.233 298.125H233.22C226.998 298.125 221.953 303.162 221.953 309.375V326.25C221.953 332.463 226.998 337.5 233.22 337.5H242.233C248.456 337.5 253.5 332.463 253.5 326.25V309.375C253.5 303.162 248.456 298.125 242.233 298.125Z" stroke="#004BCC" stroke-opacity="0.254902"/>
<path d="M73.02 335.875C80.4869 335.875 86.54 330.838 86.54 324.625C86.54 318.412 80.4869 313.375 73.02 313.375C65.5531 313.375 59.5 318.412 59.5 324.625C59.5 330.838 65.5531 335.875 73.02 335.875Z" stroke="#004BCC" stroke-opacity="0.254902"/>
<path d="M92.3867 427.5C104.831 427.5 114.92 412.39 114.92 393.75C114.92 375.11 104.831 360 92.3867 360C79.9419 360 69.8533 375.11 69.8533 393.75C69.8533 412.39 79.9419 427.5 92.3867 427.5Z" stroke="#004BCC" stroke-opacity="0.254902"/>
<path d="M245.613 427.5C258.058 427.5 268.147 412.39 268.147 393.75C268.147 375.11 258.058 360 245.613 360C233.169 360 223.08 375.11 223.08 393.75C223.08 412.39 233.169 427.5 245.613 427.5Z" stroke="#004BCC" stroke-opacity="0.254902"/>
<path d="M90.1334 455.625C99.467 455.625 107.033 448.07 107.033 438.75C107.033 429.43 99.467 421.875 90.1334 421.875C80.7997 421.875 73.2334 429.43 73.2334 438.75C73.2334 448.07 80.7997 455.625 90.1334 455.625Z" stroke="#004BCC" stroke-opacity="0.254902"/>
<path d="M247.867 455.625C257.2 455.625 264.767 448.07 264.767 438.75C264.767 429.43 257.2 421.875 247.867 421.875C238.533 421.875 230.967 429.43 230.967 438.75C230.967 448.07 238.533 455.625 247.867 455.625Z" stroke="#004BCC" stroke-opacity="0.254902"/>
<path d="M95.7667 387C103.234 387 109.287 382.467 109.287 376.875C109.287 371.283 103.234 366.75 95.7667 366.75C88.2998 366.75 82.2467 371.283 82.2467 376.875C82.2467 382.467 88.2998 387 95.7667 387Z" stroke="#004BCC" stroke-opacity="0.254902"/>
<path d="M242.233 387C249.7 387 255.753 382.467 255.753 376.875C255.753 371.283 249.7 366.75 242.233 366.75C234.766 366.75 228.713 371.283 228.713 376.875C228.713 382.467 234.766 387 242.233 387Z" stroke="#004BCC" stroke-opacity="0.254902"/>
<path d="M185.9 213.75H152.1C136.544 213.75 123.933 226.342 123.933 241.875V275.625C123.933 291.158 136.544 303.75 152.1 303.75H185.9C201.456 303.75 214.067 291.158 214.067 275.625V241.875C214.067 226.342 201.456 213.75 185.9 213.75Z" stroke="#004BCC" stroke-opacity="0.254902"/>
<path d="M180.267 303.75H157.733C142.177 303.75 129.567 316.342 129.567 331.875V365.625C129.567 381.158 142.177 393.75 157.733 393.75H180.267C195.823 393.75 208.433 381.158 208.433 365.625V331.875C208.433 316.342 195.823 303.75 180.267 303.75Z" stroke="#004BCC" stroke-opacity="0.254902"/>
<path d="M157.733 303.75H140.833C134.611 303.75 129.567 308.787 129.567 315V337.5C129.567 343.713 134.611 348.75 140.833 348.75H157.733C163.956 348.75 169 343.713 169 337.5V315C169 308.787 163.956 303.75 157.733 303.75Z" stroke="#004BCC" stroke-opacity="0.254902"/>
<path d="M197.167 303.75H180.267C174.044 303.75 169 308.787 169 315V337.5C169 343.713 174.044 348.75 180.267 348.75H197.167C203.389 348.75 208.433 343.713 208.433 337.5V315C208.433 308.787 203.389 303.75 197.167 303.75Z" stroke="#004BCC" stroke-opacity="0.254902"/>
<path d="M157.733 348.75H140.833C134.611 348.75 129.567 353.787 129.567 360V382.5C129.567 388.713 134.611 393.75 140.833 393.75H157.733C163.956 393.75 169 388.713 169 382.5V360C169 353.787 163.956 348.75 157.733 348.75Z" stroke="#004BCC" stroke-opacity="0.254902"/>
<path d="M197.167 348.75H180.267C174.044 348.75 169 353.787 169 360V382.5C169 388.713 174.044 393.75 180.267 393.75H197.167C203.389 393.75 208.433 388.713 208.433 382.5V360C208.433 353.787 203.389 348.75 197.167 348.75Z" stroke="#004BCC" stroke-opacity="0.254902"/>
<path d="M180.267 286.875H157.733C151.511 286.875 146.467 291.912 146.467 298.125V303.75C146.467 309.963 151.511 315 157.733 315H180.267C186.489 315 191.533 309.963 191.533 303.75V298.125C191.533 291.912 186.489 286.875 180.267 286.875Z" stroke="#004BCC" stroke-opacity="0.254902"/>
<path d="M174.633 371.25H163.367C157.144 371.25 152.1 376.287 152.1 382.5C152.1 388.713 157.144 393.75 163.367 393.75H174.633C180.856 393.75 185.9 388.713 185.9 382.5C185.9 376.287 180.856 371.25 174.633 371.25Z" stroke="#004BCC" stroke-opacity="0.254902"/>
<path d="M169 427.5C186.423 427.5 200.547 417.426 200.547 405C200.547 392.573 186.423 382.5 169 382.5C151.577 382.5 137.453 392.573 137.453 405C137.453 417.426 151.577 427.5 169 427.5Z" stroke="#004BCC" stroke-opacity="0.254902"/>
<path d="M180.267 393.75H157.733C145.289 393.75 135.2 403.824 135.2 416.25V421.875C135.2 434.301 145.289 444.375 157.733 444.375H180.267C192.712 444.375 202.8 434.301 202.8 421.875V416.25C202.8 403.824 192.712 393.75 180.267 393.75Z" stroke="#004BCC" stroke-opacity="0.254902"/>
<path d="M152.1 430.875C162.056 430.875 170.127 424.327 170.127 416.25C170.127 408.173 162.056 401.625 152.1 401.625C142.144 401.625 134.073 408.173 134.073 416.25C134.073 424.327 142.144 430.875 152.1 430.875Z" stroke="#004BCC" stroke-opacity="0.254902"/>
<path d="M185.9 430.875C195.856 430.875 203.927 424.327 203.927 416.25C203.927 408.173 195.856 401.625 185.9 401.625C175.944 401.625 167.873 408.173 167.873 416.25C167.873 424.327 175.944 430.875 185.9 430.875Z" stroke="#004BCC" stroke-opacity="0.254902"/>
<path d="M169 434.25C178.956 434.25 187.027 428.206 187.027 420.75C187.027 413.294 178.956 407.25 169 407.25C159.044 407.25 150.973 413.294 150.973 420.75C150.973 428.206 159.044 434.25 169 434.25Z" stroke="#004BCC" stroke-opacity="0.254902"/>
<path d="M169 450C176.467 450 182.52 444.963 182.52 438.75C182.52 432.537 176.467 427.5 169 427.5C161.533 427.5 155.48 432.537 155.48 438.75C155.48 444.963 161.533 450 169 450Z" stroke="#004BCC" stroke-opacity="0.254902"/>
<path d="M174.633 466.875C174.633 457.555 167.067 450 157.733 450C148.4 450 140.833 457.555 140.833 466.875V635.625C140.833 644.945 148.4 652.5 157.733 652.5C167.067 652.5 174.633 644.945 174.633 635.625V466.875Z" stroke="#004BCC" stroke-opacity="0.254902"/>
<path d="M197.167 466.875C197.167 457.555 189.6 450 180.267 450C170.933 450 163.367 457.555 163.367 466.875V635.625C163.367 644.945 170.933 652.5 180.267 652.5C189.6 652.5 197.167 644.945 197.167 635.625V466.875Z" stroke="#004BCC" stroke-opacity="0.254902"/>
<path d="M159.987 495H155.48C149.258 495 144.213 500.037 144.213 506.25V523.125C144.213 529.338 149.258 534.375 155.48 534.375H159.987C166.209 534.375 171.253 529.338 171.253 523.125V506.25C171.253 500.037 166.209 495 159.987 495Z" stroke="#004BCC" stroke-opacity="0.254902"/>
<path d="M182.52 495H178.013C171.791 495 166.747 500.037 166.747 506.25V523.125C166.747 529.338 171.791 534.375 178.013 534.375H182.52C188.742 534.375 193.787 529.338 193.787 523.125V506.25C193.787 500.037 188.742 495 182.52 495Z" stroke="#004BCC" stroke-opacity="0.254902"/>
<path d="M157.733 558C165.822 558 172.38 552.459 172.38 545.625C172.38 538.79 165.822 533.25 157.733 533.25C149.644 533.25 143.087 538.79 143.087 545.625C143.087 552.459 149.644 558 157.733 558Z" stroke="#004BCC" stroke-opacity="0.254902"/>
<path d="M180.267 558C188.356 558 194.913 552.459 194.913 545.625C194.913 538.79 188.356 533.25 180.267 533.25C172.178 533.25 165.62 538.79 165.62 545.625C165.62 552.459 172.178 558 180.267 558Z" stroke="#004BCC" stroke-opacity="0.254902"/>
<path d="M159.987 579.375H155.48C149.258 579.375 144.213 584.412 144.213 590.625V607.5C144.213 613.713 149.258 618.75 155.48 618.75H159.987C166.209 618.75 171.253 613.713 171.253 607.5V590.625C171.253 584.412 166.209 579.375 159.987 579.375Z" stroke="#004BCC" stroke-opacity="0.254902"/>
<path d="M182.52 579.375H178.013C171.791 579.375 166.747 584.412 166.747 590.625V607.5C166.747 613.713 171.791 618.75 178.013 618.75H182.52C188.742 618.75 193.787 613.713 193.787 607.5V590.625C193.787 584.412 188.742 579.375 182.52 579.375Z" stroke="#004BCC" stroke-opacity="0.254902"/>
<path d="M97.878 814.974C108.109 803.256 110.713 788.788 103.692 782.658C96.6722 776.528 82.6869 781.058 72.4554 792.776C62.2239 804.494 59.6206 818.962 66.6409 825.092C73.6611 831.222 87.6464 826.692 97.878 814.974Z" stroke="#004BCC" stroke-opacity="0.254902"/>
<path d="M254.958 819.49C266.587 829.822 281.033 832.55 287.223 825.583C293.413 818.616 289.004 804.592 277.375 794.26C265.746 783.928 251.301 781.2 245.11 788.167C238.92 795.134 243.329 809.158 254.958 819.49Z" stroke="#004BCC" stroke-opacity="0.254902"/>
<path d="M157.733 655.875C165.2 655.875 171.253 651.846 171.253 646.875C171.253 641.905 165.2 637.875 157.733 637.875C150.266 637.875 144.213 641.905 144.213 646.875C144.213 651.846 150.266 655.875 157.733 655.875Z" stroke="#004BCC" stroke-opacity="0.254902"/>
<path d="M180.267 655.875C187.733 655.875 193.787 651.846 193.787 646.875C193.787 641.905 187.733 637.875 180.267 637.875C172.8 637.875 166.747 641.905 166.747 646.875C166.747 651.846 172.8 655.875 180.267 655.875Z" stroke="#004BCC" stroke-opacity="0.254902"/>
<path d="M54.2667 840.5C60.4891 840.5 65.5333 835.463 65.5333 829.25C65.5333 823.037 60.4891 818 54.2667 818C48.0443 818 43 823.037 43 829.25C43 835.463 48.0443 840.5 54.2667 840.5Z" stroke="#004BCC" stroke-opacity="0.254902"/>
<path d="M294.267 847.5C300.489 847.5 305.533 842.463 305.533 836.25C305.533 830.037 300.489 825 294.267 825C288.044 825 283 830.037 283 836.25C283 842.463 288.044 847.5 294.267 847.5Z" stroke="#004BCC" stroke-opacity="0.254902"/>
</g>
<defs>
<clipPath id="clip0_1_2">
<rect width="338" height="900" fill="white"/>
</clipPath>
</defs>
</svg>
